<?xml version="1.0" standalone="no"?>
<!DOCTYPE svg PUBLIC "-//W3C//DTD SVG 20010904//EN"
 "http://www.w3.org/TR/2001/REC-SVG-20010904/DTD/svg10.dtd">
<svg version="1.0" xmlns="http://www.w3.org/2000/svg"
 width="250.000000pt" height="250.000000pt" viewBox="0 0 250.000000 250.000000"
 preserveAspectRatio="xMidYMid meet">
<metadata>
Created by potrace 1.11, written by Peter Selinger 2001-2013
</metadata>
<g transform="translate(0.000000,250.000000) scale(0.100000,-0.100000)"
fill="#000000" stroke="none">
<path d="M615 2310 c-3 -11 -11 -20 -16 -20 -5 0 -9 -6 -9 -14 0 -7 -11 -29
-24 -48 -12 -19 -36 -59 -53 -89 -47 -85 -58 -104 -64 -109 -3 -3 -12 -18 -21
-35 -19 -39 -51 -94 -82 -143 -14 -22 -22 -43 -19 -46 4 -3 1 -6 -5 -6 -7 0
-12 -4 -12 -9 0 -6 -13 -29 -29 -53 -16 -24 -32 -53 -35 -65 -4 -13 -12 -23
-17 -23 -6 0 -8 -4 -5 -9 3 -5 -1 -14 -9 -21 -8 -7 -15 -19 -15 -26 0 -8 -4
-14 -10 -14 -5 0 -10 -6 -11 -12 0 -7 -14 -33 -30 -58 -15 -25 -38 -66 -51
-92 -12 -27 -25 -48 -28 -48 -4 0 -15 -18 -25 -40 -10 -22 -21 -40 -25 -40 -4
0 -10 -9 -13 -20 -5 -21 22 -80 68 -147 13 -20 22 -40 19 -45 -3 -4 0 -8 5 -8
6 0 11 -7 11 -15 0 -8 3 -15 8 -15 4 0 21 -26 37 -58 17 -31 33 -59 38 -60 4
-2 5 -8 1 -13 -3 -5 0 -9 5 -9 6 0 11 -7 11 -15 0 -8 5 -15 11 -15 5 0 8 -4 5
-9 -3 -5 1 -14 9 -21 8 -7 15 -19 15 -26 0 -8 5 -14 10 -14 6 0 10 -4 10 -9 0
-13 82 -155 92 -159 4 -2 8 -12 8 -23 0 -10 5 -19 10 -19 6 0 10 -6 11 -12 0
-7 13 -33 29 -58 16 -25 39 -64 51 -87 12 -24 26 -43 30 -43 4 0 10 -12 14
-27 3 -15 10 -30 14 -33 4 -3 27 -40 51 -82 l44 -78 628 0 c380 0 628 4 628 9
0 5 6 16 13 23 6 7 23 35 37 61 13 26 29 47 34 47 5 0 7 3 4 6 -3 3 27 61 68
130 40 68 70 124 66 124 -4 0 -2 4 3 8 14 9 95 148 95 161 0 6 4 11 8 11 8 0
28 34 30 53 1 4 6 13 12 20 15 17 54 80 55 89 0 4 8 16 17 28 10 11 15 20 11
20 -3 0 1 8 9 18 15 17 28 46 27 58 0 4 4 10 9 13 6 3 26 33 45 66 18 33 43
76 55 95 20 34 20 36 4 70 -9 19 -20 37 -24 38 -4 2 -8 8 -8 13 0 4 -20 43
-45 85 -25 41 -45 80 -45 85 0 5 -5 9 -11 9 -5 0 -7 5 -4 10 3 6 1 10 -5 10
-6 0 -8 5 -5 10 3 6 1 10 -4 10 -6 0 -18 18 -27 40 -9 22 -20 40 -26 40 -5 0
-6 5 -3 10 3 6 1 10 -4 10 -6 0 -11 7 -11 15 0 8 -5 15 -12 15 -6 0 -9 3 -5 6
3 4 -6 25 -21 48 -15 22 -34 55 -42 71 -8 17 -24 44 -36 60 -11 17 -31 51 -43
77 -12 26 -25 48 -29 50 -4 2 -20 29 -37 60 -16 32 -34 58 -39 58 -5 0 -7 3
-3 6 3 4 -5 23 -18 43 -14 19 -25 41 -25 47 0 7 -3 14 -7 16 -5 2 -20 26 -35
53 l-27 50 -630 3 c-623 2 -630 2 -636 -18z"/>
</g>
</svg>
